<svg width="16" height="16" viewBox="0 0 16 16" fill="none" xmlns="http://www.w3.org/2000/svg">
<path id="search-icon" d="M15.8123 14.842L11.3624 10.3515C12.2332 9.26009 12.7582 7.87712 12.7582 6.37334C12.7582 2.85342 9.90405 0 6.37909 0C2.85413 0 0 2.85759 0 6.37751C0 9.89742 2.85413 12.7508 6.37909 12.7508C7.90407 12.7508 9.29989 12.2177 10.3999 11.3262L14.8207 15.7876C14.954 15.9292 15.1373 16 15.3165 16C15.4873 16 15.6581 15.9375 15.7873 15.8125C16.0623 15.5501 16.0706 15.1169 15.8123 14.842ZM6.37909 11.3804C5.04161 11.3804 3.78329 10.8597 2.83747 9.91409C1.89164 8.9685 1.37082 7.71049 1.37082 6.37751C1.37082 5.04035 1.89164 3.78235 2.83747 2.84093C3.78329 1.89534 5.04161 1.37464 6.37909 1.37464C7.71657 1.37464 8.97489 1.89534 9.92071 2.84093C10.8665 3.78651 11.3874 5.04452 11.3874 6.37751C11.3874 7.71466 10.8665 8.97266 9.92071 9.91409C8.97489 10.8597 7.71657 11.3804 6.37909 11.3804Z" fill="#787878"/>
</svg>
