<svg width="28" height="28" viewBox="0 0 28 28" fill="none" xmlns="http://www.w3.org/2000/svg">
<path id="add-to-card-icon" fill-rule="evenodd" clip-rule="evenodd" d="M23.898 4.10176C21.252 1.45576 17.738 -0.000244141 14 -0.000244141C10.262 -0.000244141 6.748 1.45576 4.102 4.10176C1.456 6.74776 0 10.2618 0 13.9998C0 17.7378 1.456 21.2518 4.102 23.8978C6.741 26.5438 10.262 27.9998 14 27.9998C17.738 27.9998 21.259 26.5438 23.898 23.8978C26.544 21.2518 28 17.7378 28 13.9998C28 10.2618 26.544 6.74776 23.898 4.10176ZM23.24 23.2398C20.769 25.7108 17.493 27.0688 14 27.0688C10.507 27.0688 7.231 25.7108 4.76 23.2398C2.289 20.7688 0.931 17.4928 0.931 13.9998C0.931 10.5068 2.289 7.23075 4.76 4.75976C7.231 2.28876 10.507 0.930756 14 0.930756C17.493 0.930756 20.769 2.28876 23.24 4.75976C25.711 7.22375 27.069 10.5068 27.069 13.9998C27.069 17.4928 25.704 20.7688 23.24 23.2398ZM20.531 13.5308H14.462V7.46176C14.462 7.20276 14.252 6.99276 13.993 6.99276C13.734 6.99276 13.524 7.20276 13.524 7.46176V13.5308H7.455C7.196 13.5308 6.986 13.7408 6.986 13.9998C6.986 14.2588 7.196 14.4688 7.455 14.4688H13.524V20.5378C13.524 20.7968 13.734 21.0068 13.993 21.0068C14.252 21.0068 14.462 20.7968 14.462 20.5378V14.4688H20.531C20.79 14.4688 21 14.2588 21 13.9998C21 13.7408 20.79 13.5308 20.531 13.5308Z" fill="white"/>
</svg>
