<svg width="22" height="19" viewBox="0 0 22 19" fill="none" xmlns="http://www.w3.org/2000/svg">
<path id="card" d="M16.2139 6.98828L11.8326 0.420682C11.641 0.138578 11.3217 0 11.0025 0C10.6832 0 10.3639 0.138578 10.1724 0.430581L5.79102 6.98828H1.00201C0.451887 6.98828 0 7.43866 0 7.98802C0 8.0771 0.00982358 8.16619 0.0392945 8.26022L2.5787 17.54C2.80956 18.3813 3.58071 19 4.49922 19H17.5008C18.4193 19 19.1904 18.3813 19.4311 17.54L21.9705 8.26022L22 7.98802C22 7.43866 21.5481 6.98828 20.998 6.98828H16.2139ZM8.00134 6.98828L11.0025 2.58349L14.0036 6.98828H8.00134ZM11.0025 15.001C9.90221 15.001 9.00335 14.1003 9.00335 12.9966C9.00335 11.8929 9.90221 10.9922 11.0025 10.9922C12.1027 10.9922 13.0016 11.8929 13.0016 12.9966C13.0016 14.1003 12.1027 15.001 11.0025 15.001Z" fill="#787878"/>
</svg>
