<svg width="78" height="24" viewBox="0 0 78 24" fill="none" xmlns="http://www.w3.org/2000/svg">
<path d="M9.02364 23.5049C6.73165 23.4284 4.85646 22.9016 3.39021 21.9232C3.11039 21.7362 2.44359 21.1758 2.21989 20.9394C1.6253 20.3114 1.22106 19.7002 0.951442 19.0221C0.121773 16.9346 0.548774 14.1954 2.17279 11.1891C3.56329 8.61538 5.70889 6.06274 9.45221 2.52736C10.0036 2.00714 11.6457 0.485718 11.6563 0.485718C11.6602 0.485718 11.5707 0.615937 11.4581 0.774509C10.4848 2.14396 9.65198 3.75703 9.19829 5.15351C8.46948 7.39428 8.55739 9.31724 9.45575 10.8083C10.0754 11.8356 11.1378 12.7254 12.3325 13.2172C14.4239 14.078 17.486 14.1492 21.2253 13.4256C21.4828 13.3755 34.2402 10.5308 49.5754 7.10384C64.9105 3.67659 77.4596 0.874728 77.4615 0.877036C77.4658 0.880003 41.8336 13.6877 23.3364 20.3322C20.4071 21.3841 19.6237 21.6499 18.2465 22.056C14.7261 23.0945 11.5727 23.59 9.02364 23.5049Z" fill="#D3CFCF"/>
</svg>
